<svg id="圖層_1" data-name="圖層 1" xmlns="http://www.w3.org/2000/svg" xmlns:xlink="http://www.w3.org/1999/xlink" viewBox="0 0 381.05236 143.9481"><defs><style>.cls-1{fill:#91c5d4;}.cls-2{fill:#d55941;}.cls-3{fill:#004374;}.cls-4{fill:#142041;}.cls-5{stroke-miterlimit:10;fill:url(#未命名漸層_4);stroke:url(#未命名漸層_4-2);}.cls-6{fill:#759c2e;}.cls-7{fill:url(#未命名漸層_4-3);}</style><linearGradient id="未命名漸層_4" x1="279.94174" y1="329.19271" x2="279.94174" y2="221.9464" gradientUnits="userSpaceOnUse"><stop offset="0" stop-color="#0a81af"/><stop offset="1" stop-color="#142042"/></linearGradient><linearGradient id="未命名漸層_4-2" x1="279.94174" y1="330.21069" x2="279.94174" y2="221.4464" xlink:href="#未命名漸層_4"/><linearGradient id="未命名漸層_4-3" x1="277.93072" y1="337.55741" x2="277.93072" y2="246.60192" xlink:href="#未命名漸層_4"/></defs><path class="cls-1" d="M376.08759,331.715a4.31825,4.31825,0,0,1-2.60458.571h-6.989v4.00027H361.7712v-16.639H366.494v1.23533a2.23663,2.23663,0,0,1,.94455-.86878,3.816,3.816,0,0,1,1.74814-.38946h5.21269a3.29791,3.29791,0,0,1,2.03362.80006,2.24942,2.24942,0,0,1,.8,1.73756v7.7926A2.29366,2.29366,0,0,1,376.08759,331.715Zm-3.54914-8.7072a.44058.44058,0,0,0-.43-.38945H366.494v6.62776h5.55456a.53854.53854,0,0,0,.4899-.36478Z" transform="translate(-213.58665 -193.60931)"/><path class="cls-1" d="M394.05181,331.715a4.31825,4.31825,0,0,1-2.60458.571h-6.989v4.00027h-4.72278v-16.639h4.72278v1.23533a2.23665,2.23665,0,0,1,.94456-.86878,3.82657,3.82657,0,0,1,1.74814-.38946h5.21264a3.29794,3.29794,0,0,1,2.03367.80006,2.24942,2.24942,0,0,1,.80005,1.73756v7.7926A2.29366,2.29366,0,0,1,394.05181,331.715Zm-3.54914-8.7072a.44059.44059,0,0,0-.43-.38945H384.4582v6.62776h5.55809a.53746.53746,0,0,0,.48638-.36478Z" transform="translate(-213.58665 -193.60931)"/><path class="cls-1" d="M398.72878,332.286v-3.67955h4.899V332.286Z" transform="translate(-213.58665 -193.60931)"/><path class="cls-1" d="M427.54131,332.286h-7.271l-1.60715-8.09042h-.11279l-1.80452,8.09042h-7.0137l-3.55266-12.63875h4.66639l2.17813,9.71344h.28548l2.23451-9.71344h6.15725l2.06181,9.71344h.31368l2.4918-9.71344h4.49722Z" transform="translate(-213.58665 -193.60931)"/><path class="cls-2" d="M372.2732,279.05108c.11984,0,.29958.05816.29958.22733,0,1.082-3.72536,9.331-3.72536,10.41128,0,.682,1.32168.39827,1.92436.39827v25.99648h-9.19534V292.9322h-2.1605v-7.45249c2.52352,0,3.36234-4.15182,3.8452-5.51755,0-.28549-.17975-.34188-.29958-.34188h-3.306v-6.54141a3.50526,3.50526,0,0,0,2.70327-2.446l1.44151-3.81172c.05992-.22732.3595-.34187.60268-.34187h8.10981c.11983,0,.35949,0,.35949.17094-1.50142,4.83557-2.28385,8.931-5.94578,12.40084Zm10.39366,31.45941c0,3.69717-2.64335,5.74489-6.42863,5.74489h-4.02494V308.7465a2.4835,2.4835,0,0,0,2.22394-2.78786l.05991-8.24726H382.607ZM395.584,288.66583V295.891H372.57278l.05992-7.22516Zm-.41941,19.56962c.77891,0,1.50142-1.764,1.68117-2.27681l2.8231-9.84032a.6911.6911,0,0,0,.05992-.34187c0-.5692-3.66545-11.71886-4.08486-13.02644,0-.34187.23966-.34187.35949-.34187h6.73174a.65161.65161,0,0,0,.65908-.39827l1.38159-4.15358c0-.51105-1.68117-.34011-2.04067-.39827-1.98428,3.41345-4.02847,3.18612-7.75031,3.18612,0,3.41345-3.00637,5.0629-6.24888,5.0629H373.2953V268.75435h4.74394v9.61475h1.92436V266.4793h7.93v11.8898h1.98428v-10.013h4.74393v5.85943a4.4388,4.4388,0,0,0,1.6847-2.84425l1.1384-5.23383a.51438.51438,0,0,1,.54277-.39651h7.45073c.23966,0,.29958.22733.29958.39651a.68777.68777,0,0,1-.05992.34187c-.11983.79653-.54277,2.38959-.60268,3.07158,0,.22732.42293.34187.60268.34187l9.25173.05639.05992,7.567c-.3595,0-1.86092-.17094-1.98075.28372-.42294,1.64945-4.62763,17.18-4.62763,17.80561,0,.34188,3.246,10.184,3.54562,11.14966a2.88839,2.88839,0,0,0,2.58343,1.48028v8.19086h-2.40369c-1.98427,0-5.16687-.682-6.129-2.61691-.17975-.45466-1.20184-3.24252-1.50142-3.24252-.47933,0-.6626,1.82039-.78243,2.16227a5.71906,5.71906,0,0,1-.47933.79653,6.66828,6.66828,0,0,1-5.047,2.7297c-2.52352,0-5.047-.05639-7.63048-.11279-4.20469,0-5.766-3.01518-5.766-6.59956v-11.8898h8.4693v10.58222Z" transform="translate(-213.58665 -193.60931)"/><path class="cls-3" d="M452.6452,297.59684h19.82514v7.11061H452.6452v3.69717h21.7495v7.67982H420.0791v-7.67982h21.15034v-3.69717H421.58053v-6.82689h19.64891v-2.7861H452.6452Zm-5.16687-20.308h3.24251v7.62166h-3.24251v8.98916h-9.85442v-8.98916h-3.60553v4.72279c0,3.18436-2.46361,4.26637-5.46645,4.26637h-8.10981v-6.2013c1.50143.05639,3.78176,0,3.78176-1.99133v-.79653h-3.78176v-7.62166H424.527v-3.69893h-3.36587V266.4793h28.17813v7.11062h-1.86091Zm-9.85442-3.69893h-3.60553v3.69893h3.60553Zm14.29877-6.59781h8.65257V285.196h-8.65257Zm4.74746,19.626h4.44436c1.38159,0,1.74461-.6256,1.74461-1.82039l-.05992-18.77309h10.33375v21.16268c0,3.81-2.22394,6.82513-6.54847,6.82513h-9.91433Z" transform="translate(-213.58665 -193.60931)"/><path class="cls-2" d="M492.27785,271.20209h8.04989v-5.17745h10.45357v5.00651h9.25174v-5.00651h10.09408v5.00651h4.50779v8.07809h-4.50779v19.00041a4.547,4.547,0,0,1-3.1826,4.721,7.39652,7.39652,0,0,1-1.50142.39827H500.32774V278.99469h-8.04989v28.50062h42.35707v8.58913H482.24369V278.99469h-2.28386v-7.7926h2.28386V266.4793h10.03416Zm27.7552,7.90715h-9.25174v15.87068h9.25174Z" transform="translate(-213.58665 -193.60931)"/><path class="cls-3" d="M587.90727,294.29793a6.73826,6.73826,0,0,0,.6626.45466,7.3217,7.3217,0,0,0,4.08486,1.25119H594.639v6.99783H589.0492v12.79911H578.53571l.05991-16.498c0-.34011-.11983-.34011-.29958-.51105l-6.24888-7.11061a1.163,1.163,0,0,0-.84235-.28549l-7.14762-.05639a.89084.89084,0,0,0-.6626.28372l-5.16687,6.54318c-.23967.05639-.29958.28372-.23967.51105,0,3.75532,0,7.567-.05991,11.37875a6.125,6.125,0,0,1-.59916,1.64945c-1.505,3.24251-4.80738,4.37915-8.29308,4.37915h-8.7724V308.6901h5.16687c.84235,0,2.10411-1.02385,2.10411-1.87678v-3.41344h-7.45073v-7.90715h4.08486a5.918,5.918,0,0,0,3.66545-1.59306c.17975-.22733,1.86444-2.3332,1.80453-2.38959,0-.11455-.30311-.11455-.363-.11455h-7.32738V266.02464h50.82637v19.96788a3.84842,3.84842,0,0,1-.35949,1.42213c-.84235,2.55876-3.36587,3.81171-6.06914,3.98088-.11983,0-.65907-.05639-.65907.05816C585.68686,291.56647,587.72752,294.07061,587.90727,294.29793ZM562.6756,272.56606H552.10219v3.46984H562.6756Zm-.363,8.81822H552.10219v3.18612h10.21039Zm20.61109-8.81822H572.88951v3.46984h10.03416Zm0,8.81822H572.88951v3.18612h10.03416Z" transform="translate(-213.58665 -193.60931)"/><path class="cls-4" d="M254.91316,221.10065a2.90051,2.90051,0,0,0,4.08151,0,2.95907,2.95907,0,0,0,0-4.08151q-5.19588-6.0393-10.39176-12.07853a2.90052,2.90052,0,0,0-4.08152,0,2.959,2.959,0,0,0,0,4.08151Q249.71729,215.06142,254.91316,221.10065Z" transform="translate(-213.58665 -193.60931)"/><path class="cls-4" d="M279.13991,220.343a2.93013,2.93013,0,0,0,2.88607-2.88607q.29551-10.48077.5911-20.96152a2.88608,2.88608,0,1,0-5.77215,0q-.29551,10.48076-.5911,20.96152A2.923,2.923,0,0,0,279.13991,220.343Z" transform="translate(-213.58665 -193.60931)"/><path class="cls-4" d="M302.32545,221.78468a2.93938,2.93938,0,0,0,3.9487-1.03535q4.1118-6.99475,8.22354-13.9895a2.88653,2.88653,0,1,0-4.984-2.91334L301.29,217.836A2.921,2.921,0,0,0,302.32545,221.78468Z" transform="translate(-213.58665 -193.60931)"/><path class="cls-5" d="M279.103,221.95111c-36.30993.44123-65.47357,31.77366-65.01093,69.84574.13972,11.49476,2.92673,24.21223,8.06022,36.778l.25246.61787a10.16926,10.16926,0,0,0,1.57466-9.36649,92.731,92.731,0,0,1-5.13293-28.08715c-.43016-35.39858,26.62735-64.53074,60.31542-64.94011,33.688-.40938,61.445,28.05664,61.87514,63.45522a94.80881,94.80881,0,0,1-4.83819,29.40575,10.658,10.658,0,0,0,1.60609,9.47628l.033.04551.13564-.341c5.18591-13.04342,7.96228-26.76791,7.81791-38.64429C345.32882,252.1244,315.41244,221.50989,279.103,221.95111Z" transform="translate(-213.58665 -193.60931)"/><path class="cls-6" d="M277.77394,284.21379c.1176,9.85282-9.24779,6.40562-18.61109,6.51738a22.58292,22.58292,0,0,1-21.987-16.29294c-2.97082-9.44031-2.29432-16.54675,7.069-16.65851S277.65634,274.361,277.77394,284.21379Z" transform="translate(-213.58665 -193.60931)"/><path class="cls-7" d="M321.61955,249.48364c.20517-2.1698-2.60839-3.61365-4.34267-2.492-6.3896,4.13242-13.41387,7.16676-19.7797,11.33087A44.54207,44.54207,0,0,0,281.42088,276.31c-.61361,1.275-1.169,2.58569-1.77189,3.85489-4.20124-5.51739-8.67481-10.9501-14.098-15.29088a60.0624,60.0624,0,0,0-14.61826-8.2931c-3.26-1.36983-6.55291-2.65889-9.81169-4.03179a2.89839,2.89839,0,0,0-3.25913,1.32631,25.06817,25.06817,0,0,0,.09378,26.14081c4.71374,7.5713,13.836,12.83373,22.49109,14.40293,8.05553,1.46064,16.91423-.56264,21.93117-7.43483,2.79334-3.82639,4.10889-8.52464,6.67247-12.51185a36.36949,36.36949,0,0,1,8.22309-8.94916c5.59981-4.37519,12.14408-7.35288,18.34827-10.82877-.02684,6.2412.58842,12.5472-.67687,18.66365a18.89064,18.89064,0,0,1-1.64322,4.95226A13.59067,13.59067,0,0,1,312.001,280.37c-.21557.26891-.54751.61751-.82788.89931-.13292.13362-.65677.57245-.73044.65771a10.68749,10.68749,0,0,1-.99059.62047c-.26536.14285-.53793.26831-.809.39992-.0285.01384-.07675.03548-.12287.0557-.10122.04127-.20244.08337-.30473.12121a41.88515,41.88515,0,0,1-4.23412,1.30029c-6.5017,1.64772-13.22289,2.366-19.65885,4.2852a21.16525,21.16525,0,0,0-7.93066,3.86316,9.83894,9.83894,0,0,0-2.41032,3.4358,33.09577,33.09577,0,0,0-2.33429,6.67767,34.06856,34.06856,0,0,0,2.26878,21.27287,16.20584,16.20584,0,0,1-4.73207,2.42628c-2.009.59907-4.51828.60876-6.24534,1.90823-1.86767,1.4053-2.67994,3.97526-3.74314,5.96047a15.91287,15.91287,0,0,1-2.28722,3.30312c2.90083-.00508,5.80509-.116,8.683-.17986q10.01329-.22243,20.02685-.44463,8.94406-.19848,17.88791-.40122,4.57066-.10909,9.14038-.24337c.64955-.01962,1.2997-.03594,1.94985-.05427-.19973-.02448-.399-.03713-.59907-.06575a31.04929,31.04929,0,0,1-7.64129-2.19877c-5.10682-2.14769-9.604-5.33906-14.01542-8.64466a66.41136,66.41136,0,0,0-6.591-4.70062c-1.807-1.03577-3.78653-1.66073-5.8026-.84254a9.46609,9.46609,0,0,0-1.32383.67249,27.9,27.9,0,0,1-1.50191-15.80976,26.53342,26.53342,0,0,1,1.93944-5.92251c.18412-.38787.373-.77419.5792-1.15094a2.19921,2.19921,0,0,1,.21309-.30746c.10761-.11423.2151-.22834.32377-.34175.09224-.09625.20008-.17607.29681-.26724l.00828-.00864a15.03579,15.03579,0,0,1,1.32619-.81475c.28735-.15373.58074-.295.87566-.43339.112-.05262.22586-.10182.33938-.15125.03571-.01395.08715-.03417.16425-.06373a41.30582,41.30582,0,0,1,4.27278-1.35528c6.42544-1.69443,13.07733-2.40453,19.47332-4.21567a19.93509,19.93509,0,0,0,7.45588-3.46738,18.901,18.901,0,0,0,5.73473-9.62485C322.53222,267.69627,320.771,258.45976,321.61955,249.48364Zm-46.00707,36.40883c-.08361.05333-.5293.38645-.60321.43517-.268.17678-.543.34281-.82113.50316-.61834.35641-1.25773.67663-1.90208.98326a14.09521,14.09521,0,0,1-4.91442,1.29556c-7.81.60545-16.11379-3.16524-21.63578-8.55869a19.3184,19.3184,0,0,1-4.04408-21.56578c4.48788,1.82675,8.65826,3.37372,12.93565,5.60158a46.25808,46.25808,0,0,1,12.68863,9.80637,120.22041,120.22041,0,0,1,8.82465,10.63554c.05486.07308.11872.13646.17773.20529C276.09163,285.46,275.86281,285.68435,275.61248,285.89247Z" transform="translate(-213.58665 -193.60931)"/></svg>